# xmcd
#
# Track frame offsets: 
#        182
#        9005
#        18685
#        30280
#        43267
#        66600
#        76982
#        86025
#        100102
#        112265
#        125357
#        138045
#        147607
#        166570
#
# Disc length: 2417 seconds
#
# Revision: 0
# Processed by: cddbd v1.4PL0 Copyright (c) Steve Scherf et al.
# Submitted via: ExactAudioCopy v0.90b4
#
DISCID=b4096f0e
DTITLE=Station - Lonesome train
DYEAR=1991
DGENRE=Bluegrass
TTITLE0=Lonesome train
TTITLE1=Used to be
TTITLE2=Montana cowboy
TTITLE3=Kisses and screams
TTITLE4=Tell me baby now why
TTITLE5=Crying holly
TTITLE6=Hey lonesome
TTITLE7=Bus staiton
TTITLE8=Devorce me C.O.D.
TTITLE9=But you don't now how much
TTITLE10=Broken Hearted lover
TTITLE11=Mandolin part 5
TTITLE12=I'm a pilgrim
TTITLE13=leavin Lexington
EXTD=
EXTT0=
EXTT1=
EXTT2=
EXTT3=
EXTT4=
EXTT5=
EXTT6=
EXTT7=
EXTT8=
EXTT9=
EXTT10=
EXTT11=
EXTT12=
EXTT13=
PLAYORDER=
